<mxfile host="app.diagrams.net" modified="2024-01-11T20:05:23.501Z" agent="Mozilla/5.0 (Windows NT 10.0; Win64; x64) AppleWebKit/537.36 (KHTML, like Gecko) Chrome/120.0.0.0 Safari/537.36" etag="-RcEwbqqY4G72AkcsfC6" version="22.1.18" type="device">
  <diagram id="C5RBs43oDa-KdzZeNtuy" name="Page-1">
    <mxGraphModel dx="1562" dy="818" grid="1" gridSize="10" guides="1" tooltips="1" connect="1" arrows="1" fold="1" page="1" pageScale="1" pageWidth="827" pageHeight="1169" math="0" shadow="0">
      <root>
        <mxCell id="WIyWlLk6GJQsqaUBKTNV-0" />
        <mxCell id="WIyWlLk6GJQsqaUBKTNV-1" parent="WIyWlLk6GJQsqaUBKTNV-0" />
        <mxCell id="7rBa-Qyn8-TNe2tr1wVp-11" style="edgeStyle=orthogonalEdgeStyle;rounded=0;orthogonalLoop=1;jettySize=auto;html=1;" edge="1" parent="WIyWlLk6GJQsqaUBKTNV-1" source="WIyWlLk6GJQsqaUBKTNV-3" target="7rBa-Qyn8-TNe2tr1wVp-9">
          <mxGeometry relative="1" as="geometry" />
        </mxCell>
        <mxCell id="7rBa-Qyn8-TNe2tr1wVp-17" style="edgeStyle=orthogonalEdgeStyle;rounded=0;orthogonalLoop=1;jettySize=auto;html=1;exitX=0.5;exitY=0;exitDx=0;exitDy=0;entryX=0.5;entryY=1;entryDx=0;entryDy=0;" edge="1" parent="WIyWlLk6GJQsqaUBKTNV-1" source="WIyWlLk6GJQsqaUBKTNV-3" target="7rBa-Qyn8-TNe2tr1wVp-10">
          <mxGeometry relative="1" as="geometry" />
        </mxCell>
        <mxCell id="7rBa-Qyn8-TNe2tr1wVp-33" style="edgeStyle=orthogonalEdgeStyle;rounded=0;orthogonalLoop=1;jettySize=auto;html=1;exitX=0;exitY=0.5;exitDx=0;exitDy=0;entryX=0.5;entryY=0;entryDx=0;entryDy=0;" edge="1" parent="WIyWlLk6GJQsqaUBKTNV-1" source="WIyWlLk6GJQsqaUBKTNV-3" target="7rBa-Qyn8-TNe2tr1wVp-31">
          <mxGeometry relative="1" as="geometry" />
        </mxCell>
        <mxCell id="WIyWlLk6GJQsqaUBKTNV-3" value="從公開的各個來源取得股市的盤後資料" style="rounded=1;whiteSpace=wrap;html=1;fontSize=12;glass=0;strokeWidth=1;shadow=0;" parent="WIyWlLk6GJQsqaUBKTNV-1" vertex="1">
          <mxGeometry x="305" y="160" width="120" height="40" as="geometry" />
        </mxCell>
        <mxCell id="7rBa-Qyn8-TNe2tr1wVp-7" value="" style="edgeStyle=orthogonalEdgeStyle;rounded=0;orthogonalLoop=1;jettySize=auto;html=1;" edge="1" parent="WIyWlLk6GJQsqaUBKTNV-1" source="WIyWlLk6GJQsqaUBKTNV-6" target="7rBa-Qyn8-TNe2tr1wVp-5">
          <mxGeometry relative="1" as="geometry" />
        </mxCell>
        <mxCell id="7rBa-Qyn8-TNe2tr1wVp-16" style="edgeStyle=orthogonalEdgeStyle;rounded=0;orthogonalLoop=1;jettySize=auto;html=1;exitX=0.5;exitY=0;exitDx=0;exitDy=0;entryX=0.5;entryY=1;entryDx=0;entryDy=0;" edge="1" parent="WIyWlLk6GJQsqaUBKTNV-1" source="WIyWlLk6GJQsqaUBKTNV-6" target="WIyWlLk6GJQsqaUBKTNV-3">
          <mxGeometry relative="1" as="geometry" />
        </mxCell>
        <mxCell id="7rBa-Qyn8-TNe2tr1wVp-19" style="edgeStyle=orthogonalEdgeStyle;rounded=0;orthogonalLoop=1;jettySize=auto;html=1;exitX=0.5;exitY=1;exitDx=0;exitDy=0;entryX=0.5;entryY=0;entryDx=0;entryDy=0;" edge="1" parent="WIyWlLk6GJQsqaUBKTNV-1" source="WIyWlLk6GJQsqaUBKTNV-6" target="7rBa-Qyn8-TNe2tr1wVp-18">
          <mxGeometry relative="1" as="geometry" />
        </mxCell>
        <mxCell id="7rBa-Qyn8-TNe2tr1wVp-27" value="" style="edgeStyle=orthogonalEdgeStyle;rounded=0;orthogonalLoop=1;jettySize=auto;html=1;" edge="1" parent="WIyWlLk6GJQsqaUBKTNV-1" source="WIyWlLk6GJQsqaUBKTNV-6" target="7rBa-Qyn8-TNe2tr1wVp-26">
          <mxGeometry relative="1" as="geometry">
            <Array as="points">
              <mxPoint x="220" y="295" />
              <mxPoint x="220" y="295" />
            </Array>
          </mxGeometry>
        </mxCell>
        <mxCell id="WIyWlLk6GJQsqaUBKTNV-6" value="應用程式WebApi" style="rhombus;whiteSpace=wrap;html=1;shadow=0;fontFamily=Helvetica;fontSize=12;align=center;strokeWidth=1;spacing=6;spacingTop=-4;" parent="WIyWlLk6GJQsqaUBKTNV-1" vertex="1">
          <mxGeometry x="310" y="255" width="110" height="80" as="geometry" />
        </mxCell>
        <mxCell id="7rBa-Qyn8-TNe2tr1wVp-1" value="系統架構" style="text;strokeColor=none;fillColor=none;html=1;fontSize=24;fontStyle=1;verticalAlign=middle;align=center;" vertex="1" parent="WIyWlLk6GJQsqaUBKTNV-1">
          <mxGeometry x="10" y="30" width="100" height="40" as="geometry" />
        </mxCell>
        <mxCell id="7rBa-Qyn8-TNe2tr1wVp-8" value="" style="edgeStyle=orthogonalEdgeStyle;rounded=0;orthogonalLoop=1;jettySize=auto;html=1;entryX=0;entryY=0.5;entryDx=0;entryDy=0;entryPerimeter=0;" edge="1" parent="WIyWlLk6GJQsqaUBKTNV-1" source="7rBa-Qyn8-TNe2tr1wVp-5" target="7rBa-Qyn8-TNe2tr1wVp-20">
          <mxGeometry relative="1" as="geometry">
            <mxPoint x="670" y="300" as="targetPoint" />
          </mxGeometry>
        </mxCell>
        <mxCell id="7rBa-Qyn8-TNe2tr1wVp-5" value="DbFirst_ORM" style="rounded=0;whiteSpace=wrap;html=1;" vertex="1" parent="WIyWlLk6GJQsqaUBKTNV-1">
          <mxGeometry x="510" y="265" width="120" height="60" as="geometry" />
        </mxCell>
        <mxCell id="7rBa-Qyn8-TNe2tr1wVp-9" value="上市" style="ellipse;whiteSpace=wrap;html=1;aspect=fixed;" vertex="1" parent="WIyWlLk6GJQsqaUBKTNV-1">
          <mxGeometry x="240" y="20" width="80" height="80" as="geometry" />
        </mxCell>
        <mxCell id="7rBa-Qyn8-TNe2tr1wVp-10" value="上櫃" style="ellipse;whiteSpace=wrap;html=1;aspect=fixed;" vertex="1" parent="WIyWlLk6GJQsqaUBKTNV-1">
          <mxGeometry x="414" y="20" width="80" height="80" as="geometry" />
        </mxCell>
        <mxCell id="7rBa-Qyn8-TNe2tr1wVp-34" style="edgeStyle=orthogonalEdgeStyle;rounded=0;orthogonalLoop=1;jettySize=auto;html=1;exitX=0;exitY=0.5;exitDx=0;exitDy=0;" edge="1" parent="WIyWlLk6GJQsqaUBKTNV-1" source="7rBa-Qyn8-TNe2tr1wVp-18">
          <mxGeometry relative="1" as="geometry">
            <mxPoint x="230" y="330" as="targetPoint" />
          </mxGeometry>
        </mxCell>
        <mxCell id="7rBa-Qyn8-TNe2tr1wVp-18" value="Api輸出資料" style="rounded=1;whiteSpace=wrap;html=1;" vertex="1" parent="WIyWlLk6GJQsqaUBKTNV-1">
          <mxGeometry x="305" y="440" width="120" height="60" as="geometry" />
        </mxCell>
        <mxCell id="7rBa-Qyn8-TNe2tr1wVp-20" value="SQL Server&lt;br&gt;" style="strokeWidth=2;html=1;shape=mxgraph.flowchart.database;whiteSpace=wrap;" vertex="1" parent="WIyWlLk6GJQsqaUBKTNV-1">
          <mxGeometry x="700" y="260" width="60" height="70" as="geometry" />
        </mxCell>
        <UserObject label="藉由Partial特性，將varchar的欄位更改映射成enum" placeholders="1" name="Variable" id="7rBa-Qyn8-TNe2tr1wVp-23">
          <mxCell style="text;html=1;strokeColor=none;fillColor=none;align=center;verticalAlign=middle;whiteSpace=wrap;overflow=hidden;" vertex="1" parent="WIyWlLk6GJQsqaUBKTNV-1">
            <mxGeometry x="510" y="320" width="120" height="70" as="geometry" />
          </mxCell>
        </UserObject>
        <UserObject label="使用非同步，以及Polly重試&lt;br&gt;機制" placeholders="1" name="Variable" id="7rBa-Qyn8-TNe2tr1wVp-24">
          <mxCell style="text;html=1;strokeColor=none;fillColor=none;align=center;verticalAlign=middle;whiteSpace=wrap;overflow=hidden;" vertex="1" parent="WIyWlLk6GJQsqaUBKTNV-1">
            <mxGeometry x="430" y="155" width="170" height="50" as="geometry" />
          </mxCell>
        </UserObject>
        <UserObject label="儲存盤後資料時，使用窗口函數計算日均線" placeholders="1" name="Variable" id="7rBa-Qyn8-TNe2tr1wVp-25">
          <mxCell style="text;html=1;strokeColor=none;fillColor=none;align=center;verticalAlign=middle;whiteSpace=wrap;overflow=hidden;" vertex="1" parent="WIyWlLk6GJQsqaUBKTNV-1">
            <mxGeometry x="670" y="320" width="120" height="70" as="geometry" />
          </mxCell>
        </UserObject>
        <mxCell id="7rBa-Qyn8-TNe2tr1wVp-26" value="SeriLog" style="rounded=0;whiteSpace=wrap;html=1;" vertex="1" parent="WIyWlLk6GJQsqaUBKTNV-1">
          <mxGeometry x="20" y="265" width="110" height="60" as="geometry" />
        </mxCell>
        <UserObject label="儲存結構化的Log，依據類型寫入到不同的檔案上" placeholders="1" name="Variable" id="7rBa-Qyn8-TNe2tr1wVp-28">
          <mxCell style="text;html=1;strokeColor=none;fillColor=none;align=center;verticalAlign=middle;whiteSpace=wrap;overflow=hidden;" vertex="1" parent="WIyWlLk6GJQsqaUBKTNV-1">
            <mxGeometry x="10" y="325" width="130" height="55" as="geometry" />
          </mxCell>
        </UserObject>
        <UserObject label="&lt;br&gt;&lt;span style=&quot;color: rgb(0, 0, 0); font-family: Helvetica; font-size: 12px; font-style: normal; font-variant-ligatures: normal; font-variant-caps: normal; font-weight: 400; letter-spacing: normal; orphans: 2; text-align: center; text-indent: 0px; text-transform: none; widows: 2; word-spacing: 0px; -webkit-text-stroke-width: 0px; background-color: rgb(251, 251, 251); text-decoration-thickness: initial; text-decoration-style: initial; text-decoration-color: initial; float: none; display: inline !important;&quot;&gt;依據策略取得當天符合條件篩選的標的，使用OutputCache&lt;/span&gt;" placeholders="1" name="Variable" id="7rBa-Qyn8-TNe2tr1wVp-29">
          <mxCell style="text;html=1;strokeColor=none;fillColor=none;align=center;verticalAlign=middle;whiteSpace=wrap;overflow=hidden;" vertex="1" parent="WIyWlLk6GJQsqaUBKTNV-1">
            <mxGeometry x="305" y="510" width="130" height="60" as="geometry" />
          </mxCell>
        </UserObject>
        <mxCell id="7rBa-Qyn8-TNe2tr1wVp-31" value="使用AOP以及Middleware避免重複的log邏輯" style="ellipse;shape=doubleEllipse;whiteSpace=wrap;html=1;" vertex="1" parent="WIyWlLk6GJQsqaUBKTNV-1">
          <mxGeometry x="170" y="255" width="110" height="75" as="geometry" />
        </mxCell>
        <mxCell id="7rBa-Qyn8-TNe2tr1wVp-35" value="Request流程" style="text;strokeColor=none;fillColor=none;html=1;fontSize=24;fontStyle=1;verticalAlign=middle;align=center;" vertex="1" parent="WIyWlLk6GJQsqaUBKTNV-1">
          <mxGeometry x="30" y="565" width="100" height="40" as="geometry" />
        </mxCell>
        <mxCell id="7rBa-Qyn8-TNe2tr1wVp-54" value="請求" style="rounded=0;whiteSpace=wrap;html=1;" vertex="1" parent="WIyWlLk6GJQsqaUBKTNV-1">
          <mxGeometry y="620" width="70" height="60" as="geometry" />
        </mxCell>
        <mxCell id="7rBa-Qyn8-TNe2tr1wVp-66" style="edgeStyle=orthogonalEdgeStyle;rounded=0;orthogonalLoop=1;jettySize=auto;html=1;entryX=0;entryY=0.5;entryDx=0;entryDy=0;exitX=1;exitY=0.5;exitDx=0;exitDy=0;" edge="1" parent="WIyWlLk6GJQsqaUBKTNV-1" source="7rBa-Qyn8-TNe2tr1wVp-63" target="7rBa-Qyn8-TNe2tr1wVp-65">
          <mxGeometry relative="1" as="geometry">
            <mxPoint x="328" y="650" as="sourcePoint" />
          </mxGeometry>
        </mxCell>
        <mxCell id="7rBa-Qyn8-TNe2tr1wVp-72" style="edgeStyle=orthogonalEdgeStyle;rounded=0;orthogonalLoop=1;jettySize=auto;html=1;exitX=1;exitY=0.5;exitDx=0;exitDy=0;entryX=1;entryY=0.5;entryDx=0;entryDy=0;" edge="1" parent="WIyWlLk6GJQsqaUBKTNV-1" source="7rBa-Qyn8-TNe2tr1wVp-59" target="7rBa-Qyn8-TNe2tr1wVp-71">
          <mxGeometry relative="1" as="geometry">
            <Array as="points">
              <mxPoint x="750" y="790" />
              <mxPoint x="750" y="920" />
            </Array>
          </mxGeometry>
        </mxCell>
        <mxCell id="7rBa-Qyn8-TNe2tr1wVp-85" value="Middleware-Controller" style="edgeLabel;html=1;align=center;verticalAlign=middle;resizable=0;points=[];" vertex="1" connectable="0" parent="7rBa-Qyn8-TNe2tr1wVp-72">
          <mxGeometry x="0.1027" relative="1" as="geometry">
            <mxPoint x="-2" as="offset" />
          </mxGeometry>
        </mxCell>
        <mxCell id="7rBa-Qyn8-TNe2tr1wVp-59" value="Controler" style="whiteSpace=wrap;html=1;rounded=0;" vertex="1" parent="WIyWlLk6GJQsqaUBKTNV-1">
          <mxGeometry x="700" y="760" width="85" height="60" as="geometry" />
        </mxCell>
        <mxCell id="7rBa-Qyn8-TNe2tr1wVp-79" style="edgeStyle=orthogonalEdgeStyle;rounded=0;orthogonalLoop=1;jettySize=auto;html=1;exitX=1;exitY=0.5;exitDx=0;exitDy=0;entryX=0.5;entryY=0;entryDx=0;entryDy=0;" edge="1" parent="WIyWlLk6GJQsqaUBKTNV-1" source="7rBa-Qyn8-TNe2tr1wVp-65" target="7rBa-Qyn8-TNe2tr1wVp-59">
          <mxGeometry relative="1" as="geometry" />
        </mxCell>
        <mxCell id="7rBa-Qyn8-TNe2tr1wVp-84" value="Middleware-Controller" style="edgeLabel;html=1;align=center;verticalAlign=middle;resizable=0;points=[];" vertex="1" connectable="0" parent="7rBa-Qyn8-TNe2tr1wVp-79">
          <mxGeometry x="-0.5707" relative="1" as="geometry">
            <mxPoint x="16" as="offset" />
          </mxGeometry>
        </mxCell>
        <mxCell id="7rBa-Qyn8-TNe2tr1wVp-65" value="Jwt" style="whiteSpace=wrap;html=1;rounded=0;" vertex="1" parent="WIyWlLk6GJQsqaUBKTNV-1">
          <mxGeometry x="505" y="620" width="95" height="60" as="geometry" />
        </mxCell>
        <UserObject label="紀錄Request 路由以及參數" placeholders="1" name="Variable" id="7rBa-Qyn8-TNe2tr1wVp-68">
          <mxCell style="text;html=1;strokeColor=none;fillColor=none;align=center;verticalAlign=middle;whiteSpace=wrap;overflow=hidden;" vertex="1" parent="WIyWlLk6GJQsqaUBKTNV-1">
            <mxGeometry x="160" y="690" width="100" height="40" as="geometry" />
          </mxCell>
        </UserObject>
        <UserObject label="權限判斷" placeholders="1" name="Variable" id="7rBa-Qyn8-TNe2tr1wVp-69">
          <mxCell style="text;html=1;strokeColor=none;fillColor=none;align=center;verticalAlign=middle;whiteSpace=wrap;overflow=hidden;" vertex="1" parent="WIyWlLk6GJQsqaUBKTNV-1">
            <mxGeometry x="502.5" y="680" width="100" height="30" as="geometry" />
          </mxCell>
        </UserObject>
        <mxCell id="7rBa-Qyn8-TNe2tr1wVp-76" style="edgeStyle=orthogonalEdgeStyle;rounded=0;orthogonalLoop=1;jettySize=auto;html=1;exitX=0;exitY=0.5;exitDx=0;exitDy=0;entryX=1;entryY=0.5;entryDx=0;entryDy=0;" edge="1" parent="WIyWlLk6GJQsqaUBKTNV-1" source="7rBa-Qyn8-TNe2tr1wVp-71" target="7rBa-Qyn8-TNe2tr1wVp-75">
          <mxGeometry relative="1" as="geometry" />
        </mxCell>
        <mxCell id="7rBa-Qyn8-TNe2tr1wVp-71" value="Exception&lt;br&gt;Handle" style="whiteSpace=wrap;html=1;rounded=0;" vertex="1" parent="WIyWlLk6GJQsqaUBKTNV-1">
          <mxGeometry x="367.5" y="890" width="89" height="60" as="geometry" />
        </mxCell>
        <UserObject label="內部邏輯可能會丟自訂的Expection類別" placeholders="1" name="Variable" id="7rBa-Qyn8-TNe2tr1wVp-73">
          <mxCell style="text;html=1;strokeColor=none;fillColor=none;align=center;verticalAlign=middle;whiteSpace=wrap;overflow=hidden;" vertex="1" parent="WIyWlLk6GJQsqaUBKTNV-1">
            <mxGeometry x="550" y="760" width="170" height="60" as="geometry" />
          </mxCell>
        </UserObject>
        <UserObject label="攔截Exception，如果是自訂的Exception，回傳自訂的狀態碼與訊息，否則一律改為500錯誤" placeholders="1" name="Variable" id="7rBa-Qyn8-TNe2tr1wVp-74">
          <mxCell style="text;html=1;strokeColor=none;fillColor=none;align=center;verticalAlign=middle;whiteSpace=wrap;overflow=hidden;" vertex="1" parent="WIyWlLk6GJQsqaUBKTNV-1">
            <mxGeometry x="314" y="960" width="236" height="50" as="geometry" />
          </mxCell>
        </UserObject>
        <mxCell id="7rBa-Qyn8-TNe2tr1wVp-75" value="Request Log" style="rounded=0;whiteSpace=wrap;html=1;" vertex="1" parent="WIyWlLk6GJQsqaUBKTNV-1">
          <mxGeometry x="160" y="890" width="100" height="60" as="geometry" />
        </mxCell>
        <UserObject label="紀錄回傳的狀態碼，不紀錄回傳內容(太長影響效能)" placeholders="1" name="Variable" id="7rBa-Qyn8-TNe2tr1wVp-77">
          <mxCell style="text;html=1;strokeColor=none;fillColor=none;align=center;verticalAlign=middle;whiteSpace=wrap;overflow=hidden;" vertex="1" parent="WIyWlLk6GJQsqaUBKTNV-1">
            <mxGeometry x="130" y="960" width="160" height="40" as="geometry" />
          </mxCell>
        </UserObject>
        <mxCell id="7rBa-Qyn8-TNe2tr1wVp-81" value="" style="edgeStyle=orthogonalEdgeStyle;rounded=0;orthogonalLoop=1;jettySize=auto;html=1;" edge="1" parent="WIyWlLk6GJQsqaUBKTNV-1" source="7rBa-Qyn8-TNe2tr1wVp-54" target="7rBa-Qyn8-TNe2tr1wVp-63">
          <mxGeometry relative="1" as="geometry">
            <mxPoint x="70" y="650" as="sourcePoint" />
            <mxPoint x="232.5" y="650" as="targetPoint" />
          </mxGeometry>
        </mxCell>
        <mxCell id="7rBa-Qyn8-TNe2tr1wVp-82" value="Miidleware" style="edgeLabel;html=1;align=center;verticalAlign=middle;resizable=0;points=[];" vertex="1" connectable="0" parent="7rBa-Qyn8-TNe2tr1wVp-81">
          <mxGeometry x="-0.6575" y="3" relative="1" as="geometry">
            <mxPoint x="25" y="3" as="offset" />
          </mxGeometry>
        </mxCell>
        <mxCell id="7rBa-Qyn8-TNe2tr1wVp-63" value="Request Log" style="rounded=0;whiteSpace=wrap;html=1;" vertex="1" parent="WIyWlLk6GJQsqaUBKTNV-1">
          <mxGeometry x="160" y="620" width="100" height="60" as="geometry" />
        </mxCell>
      </root>
    </mxGraphModel>
  </diagram>
</mxfile>
